<svg id="visual" viewBox="0 0 900 600" width="900" height="600" xmlns="http://www.w3.org/2000/svg" xmlns:xlink="http://www.w3.org/1999/xlink" version="1.1"><rect x="0" y="0" width="900" height="600" fill="#EFEEEE"></rect><defs><linearGradient id="grad1_0" x1="33.3%" y1="100%" x2="100%" y2="0%"><stop offset="20%" stop-color="#efeeee" stop-opacity="1"></stop><stop offset="80%" stop-color="#efeeee" stop-opacity="1"></stop></linearGradient></defs><defs><linearGradient id="grad2_0" x1="0%" y1="100%" x2="66.7%" y2="0%"><stop offset="20%" stop-color="#efeeee" stop-opacity="1"></stop><stop offset="80%" stop-color="#efeeee" stop-opacity="1"></stop></linearGradient></defs><g transform="translate(900, 600)"><path d="M-369 0C-333.9 -36.2 -298.8 -72.5 -287.3 -119C-275.9 -165.5 -288.1 -222.4 -267.7 -267.7C-247.3 -313 -194.3 -346.8 -144.3 -348.3C-94.2 -349.8 -47.1 -318.9 0 -288L0 0Z" fill="#95C8E5"></path></g><g transform="translate(0, 0)"><path d="M316 0C310.1 37.9 304.2 75.7 296.6 122.8C288.9 169.9 279.6 226.3 246.1 246.1C212.6 265.9 154.9 249.2 109.8 265.2C64.8 281.2 32.4 329.9 0 378.6L0 0Z" fill="#95C8E5"></path></g></svg>